<svg width="30" height="30" viewBox="0 0 38 34" fill="none" xmlns="http://www.w3.org/2000/svg">
<path d="M28.0473 5.85977L37.1613 14.9738C37.6957 15.5082 38 16.243 38 17C38 17.757 37.6957 18.4918 37.1613 19.0262L28.0473 28.1402C27.5723 28.6152 26.934 28.875 26.266 28.875C24.8781 28.875 23.75 27.7469 23.75 26.359V21.75H14.25C12.9363 21.75 11.875 20.6887 11.875 19.375V14.625C11.875 13.3113 12.9363 12.25 14.25 12.25H23.75V7.64102C23.75 6.25312 24.8781 5.125 26.266 5.125C26.934 5.125 27.5723 5.39219 28.0473 5.85977ZM11.875 5.125H7.125C5.81133 5.125 4.75 6.18633 4.75 7.5V26.5C4.75 27.8137 5.81133 28.875 7.125 28.875H11.875C13.1887 28.875 14.25 29.9363 14.25 31.25C14.25 32.5637 13.1887 33.625 11.875 33.625H7.125C3.19141 33.625 0 30.4336 0 26.5V7.5C0 3.56641 3.19141 0.375 7.125 0.375H11.875C13.1887 0.375 14.25 1.43633 14.25 2.75C14.25 4.06367 13.1887 5.125 11.875 5.125Z" fill="white"/>
</svg>
