<svg width="50" height="80" viewBox="0 0 47 88" fill="none" xmlns="http://www.w3.org/2000/svg">
<path d="M10.91 30.1V9.326L0.852001 0.113999V42.132L10.91 30.1ZM30.556 19.29C30.6187 19.2273 30.7753 19.0707 31.026 18.82C31.3393 18.5693 31.5587 18.35 31.684 18.162C31.684 18.0993 31.7153 18.068 31.778 18.068L31.872 17.88L45.596 3.78L30.556 19.29ZM30.556 68.452C30.6187 68.5147 30.7753 68.6713 31.026 68.922C31.3393 69.1727 31.5587 69.392 31.684 69.58L31.778 69.674C31.8407 69.7367 31.872 69.7993 31.872 69.862L45.596 83.962L30.556 68.452ZM0.852001 42.132L10.91 32.356V9.326L0.852001 0.113999V42.132ZM11.662 38.748C9.406 40.5653 7.27533 42.2887 5.27 43.918L11.662 48.9H12.132L18.618 43.918L12.132 38.748H11.662ZM0.664 45.422V87.44L10.722 78.322V55.01L0.664 45.422ZM16.362 34.142H30.368C32.4987 32.0113 35.444 28.9407 39.204 24.93C43.0267 20.9193 45.4393 18.3813 46.442 17.316L45.596 3.78L31.872 17.88L31.778 17.974C31.7153 18.0367 31.684 18.0993 31.684 18.162L30.556 19.29L16.362 34.142ZM16.362 53.6L30.556 68.452C30.6187 68.5147 30.7753 68.6713 31.026 68.922C31.3393 69.1727 31.5587 69.392 31.684 69.58L31.778 69.674C31.8407 69.7367 31.872 69.7993 31.872 69.862L45.596 83.962L46.442 70.426C45.4393 69.3607 43.0267 66.8227 39.204 62.812C35.444 58.8013 32.4987 55.7307 30.368 53.6H16.362Z" fill="#BE0072"/>
</svg>
