<svg width="262" height="98" viewBox="0 0 262 98" fill="none" xmlns="http://www.w3.org/2000/svg">
<path d="M24.91 30.1V9.326L14.852 0.113999V42.132L24.91 30.1ZM44.556 19.29C44.6187 19.2273 44.7753 19.0707 45.026 18.82C45.3393 18.5693 45.5587 18.35 45.684 18.162C45.684 18.0993 45.7153 18.068 45.778 18.068L45.872 17.88L59.596 3.78L44.556 19.29ZM44.556 68.452C44.6187 68.5147 44.7753 68.6713 45.026 68.922C45.3393 69.1727 45.5587 69.392 45.684 69.58L45.778 69.674C45.8407 69.7367 45.872 69.7993 45.872 69.862L59.596 83.962L44.556 68.452ZM14.852 42.132L24.91 32.356V9.326L14.852 0.113999V42.132ZM25.662 38.748C23.406 40.5653 21.2753 42.2887 19.27 43.918L25.662 48.9H26.132L32.618 43.918L26.132 38.748H25.662ZM14.664 45.422V87.44L24.722 78.322V55.01L14.664 45.422ZM30.362 34.142H44.368C46.4987 32.0113 49.444 28.9407 53.204 24.93C57.0267 20.9193 59.4393 18.3813 60.442 17.316L59.596 3.78L45.872 17.88L45.778 17.974C45.7153 18.0367 45.684 18.0993 45.684 18.162L44.556 19.29L30.362 34.142ZM30.362 53.6L44.556 68.452C44.6187 68.5147 44.7753 68.6713 45.026 68.922C45.3393 69.1727 45.5587 69.392 45.684 69.58L45.778 69.674C45.8407 69.7367 45.872 69.7993 45.872 69.862L59.596 83.962L60.442 70.426C59.4393 69.3607 57.0267 66.8227 53.204 62.812C49.444 58.8013 46.4987 55.7307 44.368 53.6H30.362Z" fill="#BE0072"/>
<path d="M63.1719 57V38.8182H68.108V46.169H68.3565L73.8253 38.8182H79.5781L73.4347 46.9148L79.7202 57H73.8253L69.7415 50.1818L68.108 52.3125V57H63.1719ZM86.6471 57.2486C85.1911 57.2486 83.9364 56.9704 82.8829 56.4141C81.8353 55.8518 81.0274 55.0469 80.4593 53.9993C79.897 52.9458 79.6159 51.6851 79.6159 50.2173C79.6159 48.8087 79.8999 47.5777 80.4681 46.5241C81.0363 45.4706 81.8383 44.6509 82.874 44.065C83.9098 43.479 85.132 43.1861 86.5406 43.1861C87.5704 43.1861 88.5026 43.3459 89.3371 43.6655C90.1716 43.9851 90.8848 44.4497 91.4767 45.0593C92.0685 45.663 92.5242 46.3969 92.8438 47.261C93.1634 48.1251 93.3232 49.0987 93.3232 50.1818V51.3182H81.1428V48.6193H88.8133C88.8074 48.2287 88.7068 47.8854 88.5115 47.5895C88.3221 47.2876 88.0646 47.0539 87.7391 46.8881C87.4195 46.7165 87.0555 46.6307 86.6471 46.6307C86.2506 46.6307 85.8866 46.7165 85.5551 46.8881C85.2237 47.0539 84.9574 47.2847 84.7561 47.5806C84.5608 47.8765 84.4572 48.2228 84.4454 48.6193V51.5312C84.4454 51.9692 84.5371 52.3598 84.7206 52.7031C84.9041 53.0464 85.1675 53.3157 85.5107 53.511C85.854 53.7063 86.2683 53.804 86.7536 53.804C87.091 53.804 87.3988 53.7566 87.6769 53.6619C87.961 53.5672 88.2037 53.4311 88.4049 53.2536C88.6061 53.0701 88.7541 52.8511 88.8488 52.5966H93.3232C93.1694 53.5436 92.8054 54.3662 92.2313 55.0646C91.6572 55.7571 90.8966 56.2957 89.9497 56.6804C89.0086 57.0592 87.9078 57.2486 86.6471 57.2486ZM100.224 49.3295V57H95.323V43.3636H99.975V45.956H100.117C100.413 45.0919 100.934 44.4142 101.68 43.9229C102.431 43.4317 103.307 43.1861 104.307 43.1861C105.272 43.1861 106.11 43.408 106.82 43.8519C107.536 44.2899 108.089 44.8936 108.48 45.663C108.876 46.4324 109.072 47.3113 109.066 48.2997V57H104.165V49.3295C104.171 48.6548 104 48.1251 103.65 47.7404C103.307 47.3557 102.828 47.1634 102.212 47.1634C101.81 47.1634 101.458 47.2521 101.156 47.4297C100.86 47.6013 100.632 47.8499 100.472 48.1754C100.312 48.495 100.229 48.8797 100.224 49.3295ZM111.627 57V54.3011L117.593 47.1634V47.0923H111.84V43.3636H123.381V46.3466L117.948 53.2003V53.2713H123.594V57H111.627ZM126.304 57V43.3636H131.205V57H126.304ZM128.755 41.9432C128.092 41.9432 127.524 41.7242 127.05 41.2862C126.577 40.8482 126.34 40.3215 126.34 39.706C126.34 39.0904 126.577 38.5637 127.05 38.1257C127.524 37.6877 128.092 37.4688 128.755 37.4688C129.424 37.4688 129.992 37.6877 130.459 38.1257C130.933 38.5637 131.169 39.0904 131.169 39.706C131.169 40.3215 130.933 40.8482 130.459 41.2862C129.992 41.7242 129.424 41.9432 128.755 41.9432ZM140.236 57.2486C138.78 57.2486 137.525 56.9704 136.472 56.4141C135.424 55.8518 134.616 55.0469 134.048 53.9993C133.486 52.9458 133.205 51.6851 133.205 50.2173C133.205 48.8087 133.489 47.5777 134.057 46.5241C134.625 45.4706 135.427 44.6509 136.463 44.065C137.499 43.479 138.721 43.1861 140.129 43.1861C141.159 43.1861 142.091 43.3459 142.926 43.6655C143.76 43.9851 144.474 44.4497 145.066 45.0593C145.657 45.663 146.113 46.3969 146.433 47.261C146.752 48.1251 146.912 49.0987 146.912 50.1818V51.3182H134.732V48.6193H142.402C142.396 48.2287 142.296 47.8854 142.1 47.5895C141.911 47.2876 141.653 47.0539 141.328 46.8881C141.008 46.7165 140.644 46.6307 140.236 46.6307C139.839 46.6307 139.475 46.7165 139.144 46.8881C138.813 47.0539 138.546 47.2847 138.345 47.5806C138.15 47.8765 138.046 48.2228 138.034 48.6193V51.5312C138.034 51.9692 138.126 52.3598 138.309 52.7031C138.493 53.0464 138.756 53.3157 139.1 53.511C139.443 53.7063 139.857 53.804 140.343 53.804C140.68 53.804 140.988 53.7566 141.266 53.6619C141.55 53.5672 141.793 53.4311 141.994 53.2536C142.195 53.0701 142.343 52.8511 142.438 52.5966H146.912C146.758 53.5436 146.394 54.3662 145.82 55.0646C145.246 55.7571 144.485 56.2957 143.539 56.6804C142.597 57.0592 141.497 57.2486 140.236 57.2486Z" fill="white"/>
<path d="M153.821 38.8182H159.965L164.191 49.1165H164.404L168.63 38.8182H174.773V57H169.943V46.4886H169.801L165.753 56.858H162.841L158.793 46.4176H158.651V57H153.821V38.8182ZM183.753 57.2486C182.273 57.2486 181.007 56.9556 179.953 56.3697C178.9 55.7778 178.092 54.9551 177.53 53.9016C176.967 52.8422 176.686 51.6141 176.686 50.2173C176.686 48.8205 176.967 47.5954 177.53 46.5419C178.092 45.4825 178.9 44.6598 179.953 44.0739C181.007 43.482 182.273 43.1861 183.753 43.1861C185.233 43.1861 186.499 43.482 187.553 44.0739C188.606 44.6598 189.414 45.4825 189.976 46.5419C190.539 47.5954 190.82 48.8205 190.82 50.2173C190.82 51.6141 190.539 52.8422 189.976 53.9016C189.414 54.9551 188.606 55.7778 187.553 56.3697C186.499 56.9556 185.233 57.2486 183.753 57.2486ZM183.788 53.6264C184.203 53.6264 184.561 53.4873 184.863 53.2092C185.165 52.931 185.398 52.5344 185.564 52.0195C185.73 51.5046 185.813 50.892 185.813 50.1818C185.813 49.4657 185.73 48.8531 185.564 48.3441C185.398 47.8292 185.165 47.4326 184.863 47.1545C184.561 46.8763 184.203 46.7372 183.788 46.7372C183.35 46.7372 182.975 46.8763 182.661 47.1545C182.347 47.4326 182.108 47.8292 181.942 48.3441C181.776 48.8531 181.693 49.4657 181.693 50.1818C181.693 50.892 181.776 51.5046 181.942 52.0195C182.108 52.5344 182.347 52.931 182.661 53.2092C182.975 53.4873 183.35 53.6264 183.788 53.6264ZM206.136 43.3636L201.555 57H195.873L191.292 43.3636H196.442L198.643 52.3835H198.785L200.987 43.3636H206.136ZM207.53 57V43.3636H212.431V57H207.53ZM209.98 41.9432C209.317 41.9432 208.749 41.7242 208.276 41.2862C207.802 40.8482 207.566 40.3215 207.566 39.706C207.566 39.0904 207.802 38.5637 208.276 38.1257C208.749 37.6877 209.317 37.4688 209.98 37.4688C210.649 37.4688 211.217 37.6877 211.685 38.1257C212.158 38.5637 212.395 39.0904 212.395 39.706C212.395 40.3215 212.158 40.8482 211.685 41.2862C211.217 41.7242 210.649 41.9432 209.98 41.9432ZM221.462 57.2486C220.006 57.2486 218.751 56.9704 217.697 56.4141C216.65 55.8518 215.842 55.0469 215.274 53.9993C214.711 52.9458 214.43 51.6851 214.43 50.2173C214.43 48.8087 214.714 47.5777 215.283 46.5241C215.851 45.4706 216.653 44.6509 217.688 44.065C218.724 43.479 219.946 43.1861 221.355 43.1861C222.385 43.1861 223.317 43.3459 224.152 43.6655C224.986 43.9851 225.699 44.4497 226.291 45.0593C226.883 45.663 227.339 46.3969 227.658 47.261C227.978 48.1251 228.138 49.0987 228.138 50.1818V51.3182H215.957V48.6193H223.628C223.622 48.2287 223.521 47.8854 223.326 47.5895C223.137 47.2876 222.879 47.0539 222.554 46.8881C222.234 46.7165 221.87 46.6307 221.462 46.6307C221.065 46.6307 220.701 46.7165 220.37 46.8881C220.038 47.0539 219.772 47.2847 219.571 47.5806C219.375 47.8765 219.272 48.2228 219.26 48.6193V51.5312C219.26 51.9692 219.352 52.3598 219.535 52.7031C219.719 53.0464 219.982 53.3157 220.325 53.511C220.668 53.7063 221.083 53.804 221.568 53.804C221.905 53.804 222.213 53.7566 222.491 53.6619C222.775 53.5672 223.018 53.4311 223.219 53.2536C223.421 53.0701 223.569 52.8511 223.663 52.5966H228.138C227.984 53.5436 227.62 54.3662 227.046 55.0646C226.472 55.7571 225.711 56.2957 224.764 56.6804C223.823 57.0592 222.722 57.2486 221.462 57.2486ZM242.602 47.8026H238.092C238.068 47.5244 237.971 47.2847 237.799 47.0835C237.627 46.8822 237.405 46.7283 237.133 46.6218C236.867 46.5094 236.571 46.4531 236.245 46.4531C235.825 46.4531 235.464 46.5301 235.162 46.6839C234.86 46.8378 234.712 47.0568 234.718 47.3409C234.712 47.5421 234.798 47.7286 234.976 47.9002C235.159 48.0719 235.511 48.205 236.032 48.2997L238.802 48.7969C240.199 49.0514 241.238 49.4805 241.918 50.0842C242.605 50.6819 242.951 51.4839 242.957 52.4901C242.951 53.4607 242.661 54.3041 242.087 55.0202C241.519 55.7305 240.741 56.2809 239.752 56.6715C238.77 57.0562 237.648 57.2486 236.387 57.2486C234.304 57.2486 232.674 56.8224 231.496 55.9702C230.324 55.1179 229.67 53.9934 229.534 52.5966H234.399C234.464 53.0286 234.677 53.363 235.038 53.5998C235.405 53.8306 235.867 53.946 236.423 53.946C236.873 53.946 237.243 53.8691 237.533 53.7152C237.829 53.5613 237.98 53.3423 237.985 53.0582C237.98 52.7978 237.849 52.5907 237.595 52.4368C237.346 52.2829 236.956 52.1586 236.423 52.0639L234.008 51.6378C232.617 51.3951 231.576 50.9335 230.883 50.2528C230.191 49.5722 229.847 48.6963 229.853 47.625C229.847 46.678 230.096 45.8761 230.599 45.2191C231.108 44.5562 231.833 44.0531 232.774 43.7099C233.721 43.3607 234.843 43.1861 236.139 43.1861C238.11 43.1861 239.663 43.5945 240.8 44.4112C241.942 45.228 242.543 46.3584 242.602 47.8026Z" fill="#BE0072"/>
</svg>
