<svg width="50" height="30" viewBox="0 0 51 45" fill="none" xmlns="http://www.w3.org/2000/svg">
<path d="M0 6.375C0 2.85879 2.85879 0 6.375 0H44.625C48.1412 0 51 2.85879 51 6.375V38.25C51 41.7662 48.1412 44.625 44.625 44.625H6.375C2.85879 44.625 0 41.7662 0 38.25V6.375ZM4.78125 33.4688V36.6562C4.78125 37.5328 5.49844 38.25 6.375 38.25H9.5625C10.4391 38.25 11.1562 37.5328 11.1562 36.6562V33.4688C11.1562 32.5922 10.4391 31.875 9.5625 31.875H6.375C5.49844 31.875 4.78125 32.5922 4.78125 33.4688ZM41.4375 31.875C40.5609 31.875 39.8438 32.5922 39.8438 33.4688V36.6562C39.8438 37.5328 40.5609 38.25 41.4375 38.25H44.625C45.5016 38.25 46.2188 37.5328 46.2188 36.6562V33.4688C46.2188 32.5922 45.5016 31.875 44.625 31.875H41.4375ZM4.78125 20.7188V23.9062C4.78125 24.7828 5.49844 25.5 6.375 25.5H9.5625C10.4391 25.5 11.1562 24.7828 11.1562 23.9062V20.7188C11.1562 19.8422 10.4391 19.125 9.5625 19.125H6.375C5.49844 19.125 4.78125 19.8422 4.78125 20.7188ZM41.4375 19.125C40.5609 19.125 39.8438 19.8422 39.8438 20.7188V23.9062C39.8438 24.7828 40.5609 25.5 41.4375 25.5H44.625C45.5016 25.5 46.2188 24.7828 46.2188 23.9062V20.7188C46.2188 19.8422 45.5016 19.125 44.625 19.125H41.4375ZM4.78125 7.96875V11.1562C4.78125 12.0328 5.49844 12.75 6.375 12.75H9.5625C10.4391 12.75 11.1562 12.0328 11.1562 11.1562V7.96875C11.1562 7.09219 10.4391 6.375 9.5625 6.375H6.375C5.49844 6.375 4.78125 7.09219 4.78125 7.96875ZM41.4375 6.375C40.5609 6.375 39.8438 7.09219 39.8438 7.96875V11.1562C39.8438 12.0328 40.5609 12.75 41.4375 12.75H44.625C45.5016 12.75 46.2188 12.0328 46.2188 11.1562V7.96875C46.2188 7.09219 45.5016 6.375 44.625 6.375H41.4375ZM15.9375 9.5625V15.9375C15.9375 17.7006 17.3619 19.125 19.125 19.125H31.875C33.6381 19.125 35.0625 17.7006 35.0625 15.9375V9.5625C35.0625 7.79941 33.6381 6.375 31.875 6.375H19.125C17.3619 6.375 15.9375 7.79941 15.9375 9.5625ZM19.125 25.5C17.3619 25.5 15.9375 26.9244 15.9375 28.6875V35.0625C15.9375 36.8256 17.3619 38.25 19.125 38.25H31.875C33.6381 38.25 35.0625 36.8256 35.0625 35.0625V28.6875C35.0625 26.9244 33.6381 25.5 31.875 25.5H19.125Z" fill="white"/>
</svg>
