<svg width="395" height="59" viewBox="0 0 395 59" fill="none" xmlns="http://www.w3.org/2000/svg">
<path d="M16.749 27.425H21.117C23.6043 27.425 25.6063 26.8183 27.123 25.605C28.7003 24.331 29.489 22.5413 29.489 20.236C29.489 17.9307 28.761 16.1713 27.305 14.958C25.9097 13.684 23.847 13.047 21.117 13.047C20.1463 13.047 19.3273 13.0773 18.66 13.138C18.0533 13.138 17.4163 13.1987 16.749 13.32V27.425ZM22.118 39.892H0.915V7.041C0.915 5.767 1.279 4.79633 2.007 4.129C2.735 3.401 3.67533 2.82466 4.828 2.4C6.89067 1.672 9.34767 1.15633 12.199 0.852996C15.0503 0.488997 17.5983 0.306998 19.843 0.306998C28.1543 0.306998 34.5243 2.09666 38.953 5.676C43.4423 9.25533 45.687 14.1087 45.687 20.236C45.687 24.1793 44.7163 27.6373 42.775 30.61C40.8337 33.522 38.1037 35.797 34.585 37.435C31.0663 39.073 26.9107 39.892 22.118 39.892ZM0.915 32.976H16.84V56.909C16.1727 57.091 15.1413 57.273 13.746 57.455C12.3507 57.637 10.925 57.728 9.469 57.728C6.31433 57.728 4.1 57.182 2.826 56.09C1.552 54.9373 0.915 52.9657 0.915 50.175V32.976ZM74.2411 15.231H73.6951C73.1491 16.9297 72.5424 18.78 71.8751 20.782C71.2078 22.784 70.5101 24.9073 69.7821 27.152C69.0541 29.336 68.3564 31.611 67.6891 33.977L65.6871 44.26C65.3231 45.4733 64.9894 46.6563 64.6861 47.809C64.4434 48.9617 64.1704 50.0537 63.8671 51.085C63.6244 52.1163 63.3818 53.1173 63.1391 54.088C62.8964 55.0587 62.6538 55.999 62.4111 56.909C61.6224 57.1517 60.7428 57.3943 59.7721 57.637C58.8014 57.8797 57.6488 58.001 56.3141 58.001C53.2808 58.001 51.0058 57.4853 49.4891 56.454C47.9724 55.362 47.2141 53.8757 47.2141 51.995C47.2141 51.1457 47.3354 50.2963 47.5781 49.447C47.8208 48.5977 48.0938 47.5967 48.3971 46.444C48.8824 44.5027 49.6104 42.0153 50.5811 38.982C51.5518 35.888 52.6134 32.5817 53.7661 29.063C54.9794 25.4837 56.1624 21.9953 57.3151 18.598C58.5284 15.2007 59.6204 12.1673 60.5911 9.498C61.5618 6.768 62.2898 4.766 62.7751 3.492C63.8064 2.88533 65.3838 2.309 67.5071 1.763C69.6304 1.21699 71.7234 0.943995 73.7861 0.943995C76.8194 0.943995 79.5191 1.399 81.8851 2.309C84.2511 3.15833 85.7374 4.55367 86.3441 6.495C87.4361 9.589 88.5888 13.229 89.8021 17.415C91.0761 21.5403 92.3501 25.878 93.6241 30.428C94.9588 34.9173 96.2328 39.3157 97.4461 43.623C98.6594 47.8697 99.7211 51.6917 100.631 55.089C99.9031 55.8777 98.8111 56.545 97.3551 57.091C95.8991 57.637 94.1701 57.91 92.1681 57.91C89.1954 57.91 87.1328 57.4247 85.9801 56.454C84.8274 55.4227 83.9781 53.8757 83.4321 51.813L81.1571 43.077L79.3371 33.704C78.7304 31.338 78.1238 29.063 77.5171 26.879C76.9104 24.695 76.3341 22.6323 75.7881 20.691C75.2421 18.689 74.7264 16.869 74.2411 15.231ZM58.8621 45.534L65.1411 33.249H85.1611L87.0721 45.534H58.8621ZM157.159 29.427V48.173C157.159 50.0537 156.825 51.449 156.158 52.359C155.491 53.269 154.429 54.1487 152.973 54.998C151.274 55.9687 148.787 56.818 145.511 57.546C142.296 58.274 139.08 58.638 135.865 58.638C130.041 58.638 124.733 57.637 119.94 55.635C115.208 53.633 111.447 50.4783 108.656 46.171C105.865 41.8637 104.47 36.3127 104.47 29.518C104.47 23.148 105.865 17.779 108.656 13.411C111.507 9.043 115.299 5.73667 120.031 3.492C124.824 1.24733 130.162 0.125 136.047 0.125C139.869 0.125 143.175 0.549667 145.966 1.399C148.817 2.18766 151.001 3.34033 152.518 4.857C154.035 6.313 154.793 8.042 154.793 10.044C154.793 11.5607 154.399 12.9257 153.61 14.139C152.821 15.2917 151.911 16.2017 150.88 16.869C149.363 15.959 147.452 15.0793 145.147 14.23C142.842 13.3807 140.203 12.956 137.23 12.956C134.015 12.956 131.163 13.6537 128.676 15.049C126.189 16.3837 124.247 18.2947 122.852 20.782C121.517 23.2087 120.85 26.0903 120.85 29.427C120.85 33.067 121.487 36.1307 122.761 38.618C124.096 41.0447 125.916 42.8647 128.221 44.078C130.526 45.2913 133.165 45.898 136.138 45.898C137.473 45.898 138.625 45.7767 139.596 45.534C140.627 45.2307 141.416 44.9577 141.962 44.715V35.979H132.225C131.861 35.3117 131.497 34.432 131.133 33.34C130.83 32.248 130.678 31.0953 130.678 29.882C130.678 27.698 131.163 26.1207 132.134 25.15C133.165 24.1793 134.47 23.694 136.047 23.694H151.426C153.246 23.694 154.641 24.2097 155.612 25.241C156.643 26.2117 157.159 27.607 157.159 29.427ZM167.63 16.778H183.1V56.454C182.433 56.636 181.462 56.818 180.188 57C178.914 57.182 177.549 57.273 176.093 57.273C173.484 57.273 171.422 56.5147 169.905 54.998C168.388 53.4813 167.63 51.4187 167.63 48.81V16.778ZM183.1 42.349H167.63V10.317C167.63 7.70833 168.388 5.64566 169.905 4.129C171.422 2.61233 173.484 1.854 176.093 1.854C177.549 1.854 178.914 1.945 180.188 2.127C181.462 2.309 182.433 2.491 183.1 2.673V42.349ZM176.093 35.16V22.784H203.575C204 23.4513 204.364 24.3007 204.667 25.332C205.031 26.3633 205.213 27.516 205.213 28.79C205.213 31.0347 204.728 32.6727 203.757 33.704C202.786 34.6747 201.452 35.16 199.753 35.16H176.093ZM176.093 57.273V44.715H206.487C206.912 45.3823 207.276 46.262 207.579 47.354C207.943 48.446 208.125 49.629 208.125 50.903C208.125 53.1477 207.64 54.7857 206.669 55.817C205.698 56.7877 204.364 57.273 202.665 57.273H176.093ZM176.093 14.321V1.854H206.123C206.548 2.52133 206.912 3.37066 207.215 4.402C207.579 5.43333 207.761 6.586 207.761 7.86C207.761 10.1047 207.276 11.7427 206.305 12.774C205.334 13.8053 204 14.321 202.301 14.321H176.093ZM234.61 30.246L255.449 2.309C256.602 1.945 257.936 1.64166 259.453 1.399C260.97 1.15633 262.304 1.035 263.457 1.035C265.338 1.035 267.097 1.27766 268.735 1.763C270.373 2.24833 271.708 3.09766 272.739 4.31099C273.831 5.52433 274.377 7.25333 274.377 9.498V33.704H281.566C281.93 34.3107 282.294 35.1903 282.658 36.343C283.022 37.435 283.204 38.5877 283.204 39.801C283.204 42.0457 282.688 43.6837 281.657 44.715C280.626 45.6857 279.321 46.171 277.744 46.171H274.377V56.909C273.77 57.0303 272.769 57.182 271.374 57.364C270.039 57.6067 268.765 57.728 267.552 57.728C264.943 57.728 262.911 57.3943 261.455 56.727C259.999 55.999 259.271 54.179 259.271 51.267V46.171H237.704C236.309 45.443 235.095 44.3813 234.064 42.986C233.093 41.53 232.608 39.7707 232.608 37.708C232.608 36.5553 232.729 35.2813 232.972 33.886C233.275 32.43 233.821 31.2167 234.61 30.246ZM260.09 33.704V16.596H259.817L248.533 33.704H260.09ZM321.818 29.336C321.818 25.7567 321.454 22.7233 320.726 20.236C320.059 17.7487 319.058 15.868 317.723 14.594C316.388 13.2593 314.781 12.592 312.9 12.592C311.019 12.592 309.412 13.2593 308.077 14.594C306.803 15.868 305.832 17.7487 305.165 20.236C304.498 22.7233 304.164 25.7567 304.164 29.336C304.164 35.0387 304.922 39.2853 306.439 42.076C307.956 44.806 310.109 46.171 312.9 46.171C315.751 46.171 317.935 44.806 319.452 42.076C321.029 39.2853 321.818 35.0387 321.818 29.336ZM312.991 58.456C308.198 58.456 303.952 57.364 300.251 55.18C296.611 52.996 293.76 49.7503 291.697 45.443C289.634 41.1357 288.603 35.7667 288.603 29.336C288.603 23.0873 289.634 17.8093 291.697 13.502C293.76 9.19466 296.611 5.91866 300.251 3.674C303.952 1.42933 308.198 0.306998 312.991 0.306998C317.723 0.306998 321.909 1.42933 325.549 3.674C329.25 5.91866 332.131 9.19466 334.194 13.502C336.317 17.8093 337.379 23.0873 337.379 29.336C337.379 35.7667 336.317 41.1357 334.194 45.443C332.131 49.7503 329.25 52.996 325.549 55.18C321.909 57.364 317.723 58.456 312.991 58.456ZM345.872 30.246L366.711 2.309C367.863 1.945 369.198 1.64166 370.715 1.399C372.231 1.15633 373.566 1.035 374.719 1.035C376.599 1.035 378.359 1.27766 379.997 1.763C381.635 2.24833 382.969 3.09766 384.001 4.31099C385.093 5.52433 385.639 7.25333 385.639 9.498V33.704H392.828C393.192 34.3107 393.556 35.1903 393.92 36.343C394.284 37.435 394.466 38.5877 394.466 39.801C394.466 42.0457 393.95 43.6837 392.919 44.715C391.887 45.6857 390.583 46.171 389.006 46.171H385.639V56.909C385.032 57.0303 384.031 57.182 382.636 57.364C381.301 57.6067 380.027 57.728 378.814 57.728C376.205 57.728 374.173 57.3943 372.717 56.727C371.261 55.999 370.533 54.179 370.533 51.267V46.171H348.966C347.57 45.443 346.357 44.3813 345.326 42.986C344.355 41.53 343.87 39.7707 343.87 37.708C343.87 36.5553 343.991 35.2813 344.234 33.886C344.537 32.43 345.083 31.2167 345.872 30.246ZM371.352 33.704V16.596H371.079L359.795 33.704H371.352Z" fill="white"/>
</svg>
