<svg width="30" height="30" viewBox="0 0 39 45" fill="none" xmlns="http://www.w3.org/2000/svg">
<path d="M26.4643 11.25C26.4643 9.3852 25.7306 7.59677 24.4245 6.27816C23.1184 4.95954 21.347 4.21875 19.5 4.21875C17.653 4.21875 15.8816 4.95954 14.5755 6.27816C13.2695 7.59677 12.5357 9.3852 12.5357 11.25C12.5357 13.1148 13.2695 14.9032 14.5755 16.2218C15.8816 17.5405 17.653 18.2812 19.5 18.2812C21.347 18.2812 23.1184 17.5405 24.4245 16.2218C25.7306 14.9032 26.4643 13.1148 26.4643 11.25ZM8.35714 11.25C8.35714 8.26631 9.53112 5.40483 11.6208 3.29505C13.7105 1.18526 16.5447 0 19.5 0C22.4553 0 25.2895 1.18526 27.3792 3.29505C29.4689 5.40483 30.6429 8.26631 30.6429 11.25C30.6429 14.2337 29.4689 17.0952 27.3792 19.205C25.2895 21.3147 22.4553 22.5 19.5 22.5C16.5447 22.5 13.7105 21.3147 11.6208 19.205C9.53112 17.0952 8.35714 14.2337 8.35714 11.25ZM4.29174 40.7812H34.7083C33.9335 35.2178 29.1978 30.9375 23.4783 30.9375H15.5217C9.80223 30.9375 5.06652 35.2178 4.29174 40.7812ZM0 42.3896C0 33.7324 6.94688 26.7188 15.5217 26.7188H23.4783C32.0531 26.7188 39 33.7324 39 42.3896C39 43.8311 37.8422 45 36.4145 45H2.58549C1.15781 45 0 43.8311 0 42.3896Z" fill="white"/>
</svg>
