<svg width="50" height="30" viewBox="0 0 49 50" fill="none" xmlns="http://www.w3.org/2000/svg">
<path d="M39.8125 19.9062C39.8125 24.299 38.3865 28.3568 35.9844 31.649L48.1004 43.7746C49.2967 44.9709 49.2967 46.9137 48.1004 48.11C46.9041 49.3063 44.9613 49.3063 43.765 48.11L31.649 35.9844C28.3568 38.3961 24.299 39.8125 19.9062 39.8125C8.90996 39.8125 0 30.9025 0 19.9062C0 8.90996 8.90996 0 19.9062 0C30.9025 0 39.8125 8.90996 39.8125 19.9062ZM19.9062 33.6875C21.716 33.6875 23.5081 33.331 25.1801 32.6385C26.8521 31.9459 28.3714 30.9308 29.6511 29.6511C30.9308 28.3714 31.9459 26.8521 32.6385 25.1801C33.331 23.5081 33.6875 21.716 33.6875 19.9062C33.6875 18.0965 33.331 16.3044 32.6385 14.6324C31.9459 12.9604 30.9308 11.4411 29.6511 10.1614C28.3714 8.88173 26.8521 7.86661 25.1801 7.17404C23.5081 6.48146 21.716 6.125 19.9062 6.125C18.0965 6.125 16.3044 6.48146 14.6324 7.17404C12.9604 7.86661 11.4411 8.88173 10.1614 10.1614C8.88173 11.4411 7.86661 12.9604 7.17403 14.6324C6.48146 16.3044 6.125 18.0965 6.125 19.9062C6.125 21.716 6.48146 23.5081 7.17403 25.1801C7.86661 26.8521 8.88173 28.3714 10.1614 29.6511C11.4411 30.9308 12.9604 31.9459 14.6324 32.6385C16.3044 33.331 18.0965 33.6875 19.9062 33.6875Z" fill="white"/>
</svg>
